<svg xmlns="http://www.w3.org/2000/svg" viewBox="0 0 66 9" width="66" height="9">
  <style>
    tspan { white-space:pre }
    .shp0 { fill: #05c5df }
  </style>
  <path id="Shape 1 copy" class="shp0" d="M63.09,4.42c-0.33,0.33 -0.71,0.43 -1.21,0.1l-4.41,-3.11c-0.38,-0.27 -0.75,-0.6 -1.13,-0.23l-3.33,3.17c-0.33,0.33 -0.79,0.5 -1.21,0.1l-4.42,-3.11c-0.42,-0.27 -0.87,-0.54 -1.25,-0.17l-3.33,3.17c-0.33,0.33 -0.79,0.5 -1.21,0.1l-4.41,-3.11c-0.38,-0.27 -0.83,-0.54 -1.25,-0.17l-3.66,3.45c-0.26,0.14 -0.56,0.13 -0.92,-0.11l-4.41,-3.11c-0.38,-0.27 -0.75,-0.6 -1.13,-0.23l-3.33,3.17c-0.33,0.33 -0.79,0.5 -1.21,0.1l-4.42,-3.11c-0.42,-0.27 -0.87,-0.54 -1.25,-0.17l-3.33,3.17c-0.33,0.33 -0.79,0.5 -1.21,0.1l-4.41,-3.11c-0.38,-0.27 -0.83,-0.54 -1.25,-0.17l-5.41,5.11v1.94l2.83,-2.7c0.37,-0.37 0.91,-0.07 1.25,0.17l4.42,3.11c0.46,0.33 0.83,0.2 1.17,-0.1l3.37,-3.17c0.33,-0.33 0.92,-0.07 1.21,0.17l4.41,3.11c0.5,0.33 0.87,0.23 1.21,-0.1l3.33,-3.17c0.37,-0.37 0.92,-0.07 1.25,0.17l4.42,3.11c0.46,0.33 0.83,0.2 1.17,-0.1l3.52,-3.27c0.35,-0.15 0.78,0.07 1.06,0.27l4.42,3.11c0.46,0.33 0.83,0.2 1.17,-0.1l3.37,-3.17c0.33,-0.33 0.92,-0.07 1.21,0.17l4.41,3.11c0.5,0.33 0.87,0.23 1.21,-0.1l3.33,-3.17c0.37,-0.37 0.92,-0.07 1.25,0.17l4.42,3.11c0.46,0.33 0.83,0.2 1.17,-0.1l5.46,-5.08v-1.9z" />
</svg>
