<svg xmlns="http://www.w3.org/2000/svg" width="66" height="9"><style/><path id="Shape 1 copy" d="M63.09 4.42c-.33.33-.71.43-1.21.1l-4.41-3.11c-.38-.27-.75-.6-1.13-.23l-3.33 3.17c-.33.33-.79.5-1.21.1l-4.42-3.11c-.42-.27-.87-.54-1.25-.17L42.8 4.34c-.33.33-.79.5-1.21.1l-4.41-3.11c-.38-.27-.83-.54-1.25-.17l-3.66 3.45c-.26.14-.56.13-.92-.11l-4.41-3.11c-.38-.27-.75-.6-1.13-.23l-3.33 3.17c-.33.33-.79.5-1.21.1l-4.42-3.11c-.42-.27-.87-.54-1.25-.17l-3.33 3.17c-.33.33-.79.5-1.21.1L6.65 1.31c-.38-.27-.83-.54-1.25-.17L-.01 6.25v1.94l2.83-2.7c.37-.37.91-.07 1.25.17l4.42 3.11c.46.33.83.2 1.17-.1l3.37-3.17c.33-.33.92-.07 1.21.17l4.41 3.11c.5.33.87.23 1.21-.1l3.33-3.17c.37-.37.92-.07 1.25.17l4.42 3.11c.46.33.83.2 1.17-.1l3.52-3.27c.35-.15.78.07 1.06.27l4.42 3.11c.46.33.83.2 1.17-.1l3.37-3.17c.33-.33.92-.07 1.21.17l4.41 3.11c.5.33.87.23 1.21-.1l3.33-3.17c.37-.37.92-.07 1.25.17l4.42 3.11c.46.33.83.2 1.17-.1l5.46-5.08v-1.9z" fill="#05c5df"/></svg>